<?xml version="1.0" standalone="no"?>
<!DOCTYPE svg PUBLIC "-//W3C//DTD SVG 20010904//EN"
 "http://www.w3.org/TR/2001/REC-SVG-20010904/DTD/svg10.dtd">
<svg version="1.0" xmlns="http://www.w3.org/2000/svg"
 width="700.000000pt" height="700.000000pt" viewBox="0 0 700.000000 700.000000"
 preserveAspectRatio="xMidYMid meet">
<metadata>
Created by potrace 1.14, written by Peter Selinger 2001-2017
</metadata>
<g transform="translate(0.000000,700.000000) scale(0.100000,-0.100000)"
fill="#000000" stroke="none">
<path d="M3038 6885 c0 0 -2 -112 -4 -250 -1 -137 -3 -293 -3 -345 -1 -52 -5
-100 -9 -107 -4 -6 -41 -14 -82 -17 -199 -17 -376 -53 -505 -102 -196 -76
-420 -199 -531 -293 -17 -14 -51 -42 -74 -61 -112 -90 -285 -279 -368 -401
-45 -68 -125 -223 -156 -304 -93 -246 -66 -656 62 -953 92 -213 221 -377 428
-542 88 -71 357 -210 489 -253 224 -73 433 -118 660 -143 33 -3 67 -10 75 -14
13 -7 15 -84 14 -602 l0 -593 -46 -1 c-85 -2 -267 30 -317 56 -9 4 -38 18 -65
31 -26 13 -76 43 -110 66 -63 45 -166 140 -166 154 0 4 -7 14 -15 23 -22 22
-78 138 -110 227 l-27 76 -426 -3 c-235 -1 -451 -3 -480 -3 -49 -1 -52 -2 -48
-24 3 -12 8 -44 11 -72 37 -332 169 -652 367 -888 192 -229 504 -455 763 -552
111 -41 237 -82 280 -89 17 -3 41 -8 54 -11 38 -7 150 -16 238 -19 46 -1 86
-6 90 -9 3 -4 7 -174 7 -379 l1 -372 428 0 c236 -1 433 1 437 4 5 3 10 175 11
383 1 416 -2 394 64 395 83 2 266 33 392 67 150 40 351 126 528 225 64 36 227
147 270 185 205 179 284 267 383 428 118 191 159 297 208 542 11 54 13 309 3
365 -31 177 -53 246 -125 387 -80 157 -145 244 -285 378 -147 140 -288 234
-490 325 -148 67 -322 120 -474 144 -16 2 -50 8 -75 11 -25 4 -52 9 -60 10 -9
2 -67 6 -130 10 -63 3 -124 8 -135 10 -11 2 -33 4 -48 4 l-28 1 3 583 3 582
75 -1 c89 -1 117 -6 218 -40 266 -89 419 -250 435 -461 2 -23 6 -46 10 -50 4
-4 231 -7 503 -8 l496 0 -7 60 c-14 130 -76 324 -161 501 -42 87 -139 256
-169 292 -7 9 -40 51 -73 93 -289 368 -697 597 -1162 653 -122 15 -146 19
-157 28 -9 7 -12 94 -13 331 0 176 -3 323 -6 326 -4 4 -299 6 -866 6z m-8
-1692 c4 -10 5 -984 1 -1029 -2 -18 -143 -9 -234 15 -156 41 -271 104 -363
200 -77 80 -131 169 -138 229 -5 43 -1 177 7 212 34 154 155 271 346 335 124
41 370 66 381 38z m1141 -2247 c233 -28 378 -94 494 -227 70 -81 97 -169 96
-317 -2 -123 -28 -202 -88 -267 -130 -139 -360 -221 -645 -230 l-118 -4 0 531
1 530 118 -7 c65 -3 128 -8 142 -9z"/>
</g>
</svg>
